<svg width="18" height="18" viewBox="0 0 200 200" xmlns="http://www.w3.org/2000/svg"><g transform="rotate(90 253.13 -18.311)" fill="#ffffff"><path d="m388.5 187.5v-13.5h-45v-78h45v-13.5l0.10881-15.142 2.9787 2.4858c0.46066 0.38444 3.2125 2.7562 7.7125 7.0562 4.5 4.2 10.9 10.2 14.3 13.1 12.1 10.6 29.5 26.5 39.2 35.7l10.1 9.6-6.2 5.4c-3.3 3.2-12.8 11.7-21 19.2-23.5 21.6-46.52 42.642-47.303 42.478 0 0 0.13829-6.9041 0.13829-14.404z"/><path d="m279 135v-39h21v78h-21z"/><path d="m307.5 135v-39h28.6v78h-28.6z"/></g></svg>