<?xml version="1.0" encoding="UTF-8"?><svg id="a" xmlns="http://www.w3.org/2000/svg" viewBox="0 0 374.1 134.75"><defs><style>.b{fill:#fff;}.c{fill:#ffbf00;}</style></defs><g><path class="c" d="M5.14,64.85L35.82,10.97c1.58-2.8,3.14-4.19,4.68-4.19s3.1,1.4,4.68,4.19l30.68,53.88h-12.53L40.5,24.46l-22.83,40.39H5.14Z"/><path class="c" d="M82.43,13.87c0-.99,.13-1.88,.4-2.69,.27-.81,.65-1.5,1.15-2.09s1.09-1.03,1.79-1.35c.69-.32,1.46-.47,2.31-.47h4.17c.4,0,.79,.06,1.19,.19,.39,.12,.77,.3,1.13,.52s.69,.5,.99,.81c.3,.32,.57,.66,.79,1.05l21.37,37.82,21.37-37.82c.22-.38,.49-.73,.79-1.05,.31-.32,.64-.59,1-.81s.73-.4,1.13-.52c.39-.12,.79-.19,1.19-.19h4.15c.84,0,1.61,.16,2.31,.47,.69,.32,1.29,.76,1.79,1.35s.88,1.28,1.15,2.09c.27,.81,.4,1.71,.4,2.69l.04,50.98h-10.3V25.45l-20.33,35.7c-.25,.44-.54,.9-.87,1.4s-.7,.95-1.1,1.36c-.4,.41-.83,.75-1.28,1.03-.46,.27-.94,.41-1.44,.41s-.97-.14-1.43-.41c-.46-.27-.89-.62-1.28-1.03-.4-.41-.76-.86-1.09-1.36s-.62-.96-.86-1.4l-20.35-35.74v39.44h-10.3l.04-50.98Z"/><path class="c" d="M166.98,7.27h43.92c1.65,0,3.17,.23,4.54,.69,1.37,.46,2.61,1.09,3.72,1.9,1.11,.81,2.08,1.77,2.91,2.87,.83,1.1,1.53,2.3,2.08,3.59,.55,1.29,.97,2.65,1.25,4.07s.42,2.87,.42,4.32c0,2.07-.28,4.09-.83,6.05-.55,1.96-1.39,3.74-2.52,5.33,1.1,1.62,1.93,3.42,2.49,5.41,.56,1.99,.84,4.02,.85,6.09,0,1.44-.13,2.87-.4,4.29-.27,1.42-.68,2.77-1.22,4.04-.55,1.28-1.23,2.46-2.05,3.56-.82,1.1-1.79,2.04-2.9,2.84-1.11,.8-2.36,1.42-3.75,1.87s-2.93,.68-4.6,.68h-43.92c-.85,0-1.61-.16-2.31-.47-.69-.32-1.29-.76-1.79-1.35s-.88-1.28-1.15-2.09c-.27-.81-.4-1.71-.4-2.69V13.87c0-.99,.13-1.88,.4-2.69,.27-.81,.65-1.5,1.15-2.09s1.09-1.03,1.79-1.35c.69-.32,1.46-.47,2.31-.47Zm4.65,11v11.66h39.11c1.04,0,1.91-.29,2.6-.86,.69-.58,1.2-1.3,1.54-2.16,.34-.86,.51-1.8,.51-2.81s-.18-1.94-.53-2.81c-.35-.86-.87-1.58-1.56-2.16-.69-.58-1.54-.86-2.56-.86h-39.11Zm0,35.57h39.11c.66,0,1.23-.19,1.73-.56,.5-.37,.91-.86,1.24-1.46,.33-.6,.57-1.29,.74-2.07,.16-.77,.25-1.57,.25-2.37s-.08-1.6-.25-2.37c-.17-.77-.41-1.46-.74-2.07-.33-.6-.74-1.09-1.24-1.46-.5-.37-1.08-.56-1.73-.56h-39.11v12.91Z"/><path class="c" d="M232.8,58.25V13.87c0-.99,.13-1.88,.4-2.69,.27-.81,.65-1.5,1.15-2.09s1.09-1.03,1.79-1.35c.69-.32,1.46-.47,2.31-.47h57.42v11h-52.77v11.66h46.37v11h-46.37v12.91h52.77v11h-57.42c-.85,0-1.61-.16-2.31-.47-.69-.32-1.29-.76-1.79-1.35s-.88-1.28-1.15-2.09c-.27-.81-.4-1.71-.4-2.69Z"/><path class="c" d="M308.48,7.27h43.95c1.65,0,3.17,.23,4.53,.7s2.6,1.1,3.7,1.91c1.1,.81,2.05,1.77,2.87,2.88s1.49,2.31,2.03,3.61,.94,2.65,1.21,4.07c.27,1.42,.4,2.85,.39,4.29,0,1.47-.13,2.92-.4,4.36-.27,1.44-.68,2.81-1.21,4.1-.54,1.3-1.22,2.49-2.03,3.59-.82,1.1-1.77,2.05-2.86,2.85s-2.32,1.43-3.69,1.88c-1.37,.45-2.88,.68-4.53,.68h-.19l15.84,22.66h-12.76l-15.84-22.66h-26.35v22.66h-10.28l-.02-50.98c0-.99,.13-1.88,.4-2.69,.27-.81,.65-1.5,1.15-2.09s1.09-1.03,1.79-1.35c.69-.32,1.46-.47,2.31-.47Zm43.76,23.91c.76,0,1.43-.19,2.01-.56s1.06-.86,1.44-1.46c.39-.6,.68-1.29,.87-2.07s.29-1.57,.3-2.38c0-.81-.09-1.6-.27-2.37-.19-.77-.47-1.46-.85-2.07s-.86-1.09-1.44-1.46c-.58-.37-1.26-.56-2.05-.56h-39.11v12.91h39.11Z"/></g><g><path class="b" d="M4.92,120.92v-44.37c0-.99,.18-1.88,.54-2.69,.36-.81,.87-1.5,1.53-2.09,.66-.58,1.46-1.03,2.38-1.35,.92-.32,1.94-.47,3.07-.47H88.81v11H18.62v11.66h61.67v11H18.62v12.91H88.81v11H12.43c-1.12,0-2.15-.16-3.07-.47-.92-.32-1.71-.76-2.38-1.35-.66-.58-1.17-1.28-1.53-2.09-.36-.81-.54-1.71-.54-2.69Z"/><path class="b" d="M111.75,116.52h70.19v11H105.57c-1.12,0-2.15-.16-3.07-.47-.92-.32-1.71-.76-2.38-1.35-.66-.58-1.17-1.28-1.53-2.09-.36-.81-.54-1.71-.54-2.69v-50.97h13.7v46.57Z"/><path class="b" d="M191.19,120.92v-44.37c0-.99,.18-1.88,.54-2.69,.36-.81,.87-1.5,1.53-2.09,.66-.58,1.46-1.03,2.38-1.35,.92-.32,1.94-.47,3.07-.47h76.37v11h-70.19v11.66h61.67v11h-61.67v12.91h70.19v11h-76.37c-1.12,0-2.15-.16-3.07-.47-.92-.32-1.71-.76-2.38-1.35-.66-.58-1.17-1.28-1.53-2.09-.36-.81-.54-1.71-.54-2.69Z"/><path class="b" d="M290.78,75.62c2.09-1.84,4.41-3.24,6.94-4.22,2.54-.97,5.29-1.46,8.28-1.46h62.46v11h-62.46c-1.11,0-2.15,.18-3.13,.54s-1.83,.86-2.55,1.5c-.73,.64-1.3,1.38-1.71,2.24-.41,.86-.62,1.77-.62,2.75v21.51c0,.9,.23,1.78,.68,2.62s1.05,1.59,1.79,2.24c.74,.65,1.59,1.18,2.55,1.57s1.95,.6,2.98,.6h62.46v11h-62.46c-1.48,0-2.92-.14-4.32-.41s-2.74-.66-4.03-1.16c-1.29-.5-2.51-1.1-3.66-1.8-1.16-.7-2.22-1.47-3.21-2.3-2.04-1.74-3.63-3.75-4.76-6.01s-1.7-4.72-1.7-7.35v-19.49c0-2.63,.55-5.06,1.66-7.28,1.11-2.22,2.71-4.25,4.8-6.09Z"/></g></svg>