<?xml version="1.0" encoding="UTF-8"?><svg xmlns="http://www.w3.org/2000/svg" viewBox="0 0 360 360"><defs><style>.i{fill:#f7c911;}.j{fill:#674018;}.k{fill:#ecb21f;}.l{fill:#f3be18;}.m{fill:#ffe24b;}.n{fill:#ffefb2;}.o{fill:#ffbf00;}.p{fill:#b2832c;}.q{fill:#a66f29;}.r{fill:#bf832b;}.s{fill:#d49429;}.t{fill:#955c25;}.u{fill:#a36828;}.v{fill:#7a4d1f;}.w{fill:#844b1f;}.x{opacity:.3;}</style></defs><g id="a"/><g id="b"/><g id="c"/><g id="d"><g class="x"><g><path class="r" d="M253.5,233.12c-2.58-29,38.21-40.83,60.38-39.58"/><path class="p" d="M257.08,60.16c42.05,23.58,70.93,74.35,70.93,122.31,0,73.81-66.27,133.62-148.01,133.62S31.99,256.29,31.99,182.48c0-47.18,24.89-99.85,67.15-121.15,56.93-28.69,135.31-13.85,157.94-1.16Z"/><path class="k" d="M246.89,82.71c25.06,9.89,46.79,33.95,63.27,54.83,15.56,19.73,6.15,60.72-4.21,81.4-12.36,24.68-34.96,41.62-60.19,51.68-39.49,15.74-76.23,13.92-115.12-2.06-23.51-9.65-42.24-21.01-57.48-42.11-16.91-23.45-17.82-53.34-7.62-79.73,11.05-28.55,29.36-47.08,57.88-57.52,26.36-9.64,56.33-17.37,84.59-15.67,13.65,.82,26.5,4.3,38.88,9.18Z"/><path class="l" d="M249.97,81.69c18.35,7.23,28.09,19.8,40.93,33.78-26.35-1.2-59.2,27.93-77.21,44.15-21.37,19.24-41.14,42.37-64.5,59.08-17.1,12.23-43.8,17.67-62.73,7.72-25.71-13.54-26.87-57.4-17.84-80.72,11.04-28.56,29.36-47.09,57.87-57.54,26.36-9.64,56.34-17.36,84.6-15.67,13.65,.82,26.5,4.31,38.88,9.19Z"/><path class="s" d="M246.89,84.78c21.51,8.48,37.42,25.28,52.75,41.9,14.11,15.3,18.56,23.78,22.76,44.58-12.11-13.78-20.12-30.31-35.41-41.28-15.73-11.28-35.75-17.12-54.69-19.91-37.38-5.5-79.37,.25-111.92,20.24-28.25,17.36-52.43,44.09-53.45,78.95-.37,12.98,4.98,25.29,10.22,36.98,7.32,16.29,21.06,25.48,29.8,39.92-43.45-.24-68.25-67-68.25-101.81,0-46.5,45.33-78.69,84.71-93.09,26.36-9.64,56.33-17.37,84.59-15.67,13.65,.82,26.5,4.3,38.88,9.19Z"/><path class="i" d="M297.86,148.34c14.17,11.23,23.89,31.35,20.05,46.57-8.46,33.63-27.43,69.62-63.43,79.5-21.77,5.97-40.82,2.55-61.2-7.6-9.61-4.78-31.68-15.63-32.89-28.12-2.07-21.24,42.66-41.06,56.44-50.1,10.08-6.6,20.85-14.91,28.96-23.81,5.06-5.56,8.37-14.86,14.29-19.33,12.37-9.33,26.49-6.04,37.77,2.89Z"/><path class="u" d="M47.36,136c-6.03,14.65-6.97,30.49-5.91,46.2,16.2-32.09,30.4-61.4,64.27-78.87,27.38-14.12,56.38-14.37,86.59-14.37,23.99,0,44.68,3.26,66.78,12.33,8.45,3.47,16.98,6.03,24.42,11.46,8.58,6.27,15.02,15.39,24.25,20.71-6.2-12.85-15.96-23.44-23.57-35.4-4.74-7.45-8.16-16.05-13.72-22.94-17.45-21.64-44.73-14.59-68.52-13.6-33.68,1.38-70.13-7.31-100.54,11.01-24.42,14.7-43.22,37.18-54.04,63.48Z"/><path class="w" d="M229.19,49.8c10.81,3.23,20.98,7.92,29.62,14.42,9.93,7.47,17.33,15.95,23.73,26.58-14.69-15.63-43.25-19-63.26-22.18-16.15-2.57-32.5-1.71-48.82-.18-13.4,1.26-26.54,1.1-39.81,3.54-10.9,2.01-20.98,6.6-31.7,9.01-4.37,.99-18.79,7.58-22.28,4.45,3.99-7.08,14.29-14.04,21.02-18.61,7.56-5.13,15.5-9.27,23.78-13.15,15.3-7.16,35.23-8.18,51.86-9.36,17.71-1.24,37.69,.05,55.85,5.47Z"/><path class="r" d="M268.41,101.29c13.47,17.33,7.11,37.83-4.6,54.11-14.18,19.72-28.79,31.06-47.95,45.22,4.32-7.54,15.55-19.28,13.61-28.81-2.73-13.43-16.67-4.28-25.58-1.89-17.8,4.8-36.23,11.65-50.38,24.13-10.52,9.26-16.41,24.34-26.78,32.55-.79-13.03-1.71-27.11,.85-40.01,3.2-16.16,12.39-26.51,27.55-34.17,12.41-6.28,45.46-18.93,45.43-35.73-.02-11.31-21.78-18.38-31.76-19.74,10.13-11.15,35.38-10.66,49.45-11.33,17.16-.81,38.64,.79,50.16,15.65Z"/><path class="v" d="M248.57,209.39c-.16,1.48-.38,2.94-.7,4.39-3.07,14.04-8.6,27.34-14.54,40.37-5.18,11.36-20.52,35.71-35.43,34.24-.99-19.74,.97-36.64,5.92-55.92,2.8-10.89,7.3-27.56,4.47-38.58-6.01,5.15-14.15,15.1-16.16,23.09-1.92,7.68,2.02,16.01,1.5,23.61-1.14,16.79-18.6,43.34-33.06,51.25-.42-.14-.77-.39-1.03-.75,9.01-12.91,24.21-26.06,26.42-42.42,1.13-8.37,.39-20.68-2.71-28.48-3.82,7.46-3.97,13.32-4.82,21.48-.52,4.94-2.12,8.03-4.59,12.29-3.24,5.62-6.64,11.11-10.08,16.61-2.02,3.24-9.54,18.27-13.48,17.43,2.86-11.09,12.51-20.44,18.42-30.2,2-3.33,5.22-7.79,5.65-11.67,.29-2.77-1.86-4.75-1.9-7.09-3.26,5.33-6.3,9.92-10.5,14.73-4.39,5.03-9.03,9.84-14.05,14.27-9.75,8.61-21.47,16.46-34.66,18.19-14.83,1.93-33.11-12.36-19.21-26.66,7.93-8.14,21.67-14.12,30.98-21.41,8.58-6.7,16.45-14.43,23.09-23.07,2.62-3.4,5.13-5.82,8.35-8.56,3.68-3.12,6.07-7.44,9.53-10.8,2.53-2.46,5.36-4.55,7.99-6.89,2.3-2.02,4.19-4.79,6.85-6.34-2.79,.04-8.73,5.13-11.35,6.66-3.83,2.23-7.89,4.1-11.87,6.09-3.56,1.78-7.04,3.66-10.24,5.99-4.65,3.39-8.82,7.52-12.91,11.58-5.68,5.65-41.05,48.66-47.28,27.46-1.49-5.08,0-14.65,1.28-19.64,3.69-14.31,12.73-26.93,22.76-37.24,15.84-16.28,39.48-30.32,61.79-35.6,3.76-.9,12.57,1.23,15.4-.83,3.65-2.68,1.71-9.93,1.43-13.76-.47-6.34-1.52-12.61-3.06-18.77-.21-.86-.95-3.07-.86-3.99,.15-2.05,.05-1.07,1.41-2.68,1.5-1.8,3.43-3.1,4.94-4.87,3.75-4.42,5.99-10.15,9.88-14.64,2.26-2.6,5.18-5.74,6.31-8.97,1.03-2.95-.29-7.28,1.25-9.65,1.28,1.96-.11,4.8,.89,7.03,2.1-.68,3.4-2.83,5.66-3.22-.22,2.65-2.39,3.21-4.25,4.83-2.38,2.08-3.81,4.83-5.12,7.66-2.97,6.43-6.1,13.54-10.43,19.19-1.97,2.59-3.05,3.24-3.05,5.95,.02,4.42,2.06,8.9,3.11,13.18,1.47,5.93,.67,15.22,3.6,20.29-.17-.31,2.52-5.91,2.71-6.79,.52-2.29,.98-4.73,1.45-7.09,1.06-5.24,1.38-11.08,4.07-15.83,1.6-2.85,3.58-6.65,5.99-8.91,2.49-2.35,5.99-3.28,8.03-6.27,2.23-3.29-1.2-7.35,.93-10.45,.81,1.72-.06,3.48,.71,5.16,1.58-.4,2.32-1.92,3.38-3.13-2.68,4.96-.31,9.35-4.37,13.76-2.66,2.89-8.97,5.21-10.11,9.14-1.16,3.96,2.23,2.43,3.31,4.51,1.19,2.31-1.97,5.21-3.17,6.98-2.63,3.86-4.53,8.58-5.32,13.19-.6,3.46-.57,3.92,2.73,4.94,2.12,.66,3.99,1.54,6.29,1.24,4.82-.63,5.24-3.78,4.95-7.88-.33-4.88-.3-10.34,2.9-14.37,1.81-2.28,3.23-3,5.82-4.04,6.07-2.44,11.2-9.15,14.46-14.61,3.27-5.49,5.92-11.55,7.48-17.7,1.85-7.23,4.43-18.58-4.82-21.94-6.93-2.53-15,2.97-17.73,9.41-.77,1.83-2.31,5.9,.15,6.54,1.4,.36,3.7-1.63,5.16-1.87,1.74,3.8-12.18,9.57-9.21-2.78,2.1-8.77,13.09-16.27,21.76-13.02,13.7,5.14,8.27,25.72,3.4,35.6-2.33,4.69-5.59,8.92-7.14,13.98-2.8,9.12,6.14,3.66,10.62,2.24,6.02-1.91,13.46-2.24,19.61-1.3,14.2,2.14,19.89,25.21,18.01,36.69-1.14,6.96-5.86,15.55-13.8,14.74-11.05-1.12-8.46-18.4-2.28-12.73-5.63,3.57-2.09,10.62,4.15,9.28,7.39-1.58,8.69-16.94,8.29-22.54-.63-9.26-5.1-17.85-14.08-21.3-2.64-1.02-26.64,.75-24.43,4.13,1.35,2.07,1.27,4.88,2.67,6.54,1.26,1.48,3.84,1.31,5.23,2.75,3.37,3.5,.85,10.9-1.89,14.06-2.21,2.54-5.5,4.92-8.81,4.52-2.31-.28-6.03-.62-7.39,1.79-1.62,2.87,.8,5.57,3.33,6.32,5.38,1.57,11.98-2.33,16.42-4.97,4.6-2.73,7.49-7.24,5.91-12.37-1.33-4.34-2.68-10.37-.04-14.58,1.4-2.24,5.85-4.27,8.21-2.41-1.56,.43-4.35,1.83-5.06,3.13,2.17,.85,4.31,.42,5.93,2.63-2.16,1.19-5.23-1.21-7.03-.06-1.89,1.21-1.67,5.71-1.18,7.74,.61,2.45,1.71,5.21,2.89,7.38,1.97,3.62,2.68,.59,5.13,2.03-.94,1.97-3.94,3.4-5.56,4.97-2.1,2.03-4.1,3.95-6.56,5.54-3.17,2.05-6.29,4.82-9.51,6.47-3.43,1.76-7.77,1.33-10.71,4.16-2.31,2.21-.22,3.64,.76,6.75,3.46,10.9,7,23.66,5.8,35.39Z"/><path class="t" d="M176.71,183.74c8.19-3.67,22.14-4.84,27.41-13.07,3.34-5.23,2.96-12.56-2.49-15.9-9.71-5.94-28.04-3.79-38.54-1.02-13.36,3.52-25.98,10.13-36.53,19.06-14.22,12.03-28.58,29.86-33.82,47.84-1.12,3.84-5.35,16.64-1.54,19.37,4.05,2.91,11.8-3.13,14.81-5.45,12.56-9.68,21.91-22.69,34.3-32.78,10.38-8.44,24.2-12.59,36.4-18.06Z"/><path class="t" d="M243.71,207.63c-.31-6.7-4.72-62.15-19.77-49.32-8.71,7.43-9.49,20.09-9.88,30.72-.37,9.96,.96,21.41-1.43,31.12-4.27,17.32-13.75,38.8-9.9,57.07,3.56,16.88,25.02-21.03,27.98-25.53,8.7-13.2,13.74-28.02,12.99-44.06Z"/><path class="j" d="M115.84,261.3c-1.45,7.74,15.54,14.57,2.42,19.09-8.35,2.88-21.34,.57-23.84-9.28-1.07-4.22-1.71-9.07,2.1-11.85,4.69-3.43,11.28-4.56,16.24-7.91,5.5-3.72,7.78-4.67,12.86,.5,1.09,1.11,3.78,6.42,5.24,6.68,3.72,.67,1.82-3.63,.51-6.01-3.46-6.35-7.79-6.34-1.71-12.6,5.35-5.53,7.57-7,14.08-1.57,1.86,1.55,4.46,6.51,7.38,5.74,4.29-1.14,.02-5.86-1.43-7.41-4.86-5.2-8-4.86-3.37-11.44,1.71-2.42,6.38-10.48,9.45-11.36,3.71-1.06,11.74,6.61,15.17,3.58,3.55-3.14-7.28-7.17-8.85-8.62,4.45-2.55,10.34-10.44,12-15.19,2.94,1.75,8.07,7.16,8.27,10.47,.37,5.8-6.37,16.05-8.88,21.1-4.19,8.45-9.8,18.55-16.12,25.6-5.55,6.21-12.08,12.41-18.85,17.04-2.32,1.6-6.34,4.56-9.24,4.17-5.39-.72-9.1-9.04-13.44-10.75Z"/><path class="q" d="M109.55,197.33c4.04-4.29,8.67-7.87,13.97-9.4-.02,3.48,1.31,8.27,4.65,9.25,.28-5.17-1.52-12.16-1-16.54,1.04-8.8,16.65-15.06,23.84-18.37,3.05-1.4,5.82-3.07,8.16-.65,1.63,1.68,1.52,7.38,.86,9.47-3.11,9.82-10.51,16.98-17.08,24.53-5.24,6.02-12.44,9.12-17.82,15.11-5.82,6.47-17.14,22.98-27.46,20.83-10.28-2.14-1.61-15.9,1.51-20.6,2.92-4.4,6.35-9.38,10.37-13.65Z"/><path class="t" d="M252.47,139.14c-4.77,7.46-18.83,6.6-24.02,.02-3.96-5-4.64-16.81,2.6-19.44,5.53-2.01,20.33,1.44,16.9,9.83,3.97,1.57,7.23,5.35,4.52,9.59Z"/><path class="q" d="M245.28,137.33c4.13-6.01-6.79-17.11-12.9-14.69-5.18,2.05-8.81,11.95-9.86,16.92-1.52,7.19-2.84,12.04,5.57,8.94,5.54-2.04,13.74-6.13,17.2-11.16Z"/><path class="q" d="M224.57,256.55c-2.9,3.55-13.85,35.7-22.91,26.55-3.4-3.43,1.81-15.01,2.65-19.07,1.43-7.01,5.74-14.56,6.11-21.64,.18-3.5-2.08-8.42,2.72-9.29,1.71-.31,5.27,2.18,7.17,2.53,1.94,.35,5.44,.1,6.67,.3-2.84-3.6-8.46-6.72-12.88-7.57,6.49-6.55,.08-19.05,2.93-27.09,0,0,1.91-2.47,2.2-2.94,1.54-2.53,2.97-5.27,4.6-7.8,2.74-4.27,5.86-9.28,10.05-12.34-2.81,5.34-7.88,10.7-10.31,16.06-1.7,3.74,.64,7.65-.59,11.36,4.87,1.87,11.32-7.58,16.52-8.26-1.25,1.84-5.12,4.56-5.71,6.55-.94,3.24,2.4,6.46,2.65,10.03,.31,4.35-2.76,4.88-3.57,8.4-.88,3.86,1.98,10.06,1.49,14.51-1.01,9.1-4.34,13.05-9.8,19.72Z"/><path class="j" d="M204.5,187.12c-2.98,6.95-11.08,15.54-16.96,20.03,6.54-9.62,6.89-21.31-5.63-24.87,2.22-5.91,10.56-7.29,13.01-13.9,1.83-4.9,.27-11.11-2.69-15.46,8.63-.25,17.85-5.68,25.96-4.7-2.21,9.37-7.7,16.36-11.23,24.87-1.82,4.38-.77,10.09-2.46,14.02Z"/><g><path class="u" d="M167.41,124.05c5.33-2.76,10.58-10.38,5.44-15.73-4.78-4.96-15.59-.34-19.35,4.09-2.33,2.74-6.05,7.17-5.96,11.06,.23,9.01,15.17,3.02,19.87,.58Z"/><path class="w" d="M165.29,120.69c6.02-2.07,9.48-9.27,1.96-10.91-5.77-1.25-15.46,2.3-14.61,9.35,.73,6.07,9.03,2.81,12.65,1.56Z"/></g><g><path class="u" d="M268.83,249.92c5.33-2.76,10.58-10.38,5.44-15.74-4.78-4.96-15.59-.33-19.35,4.09-2.34,2.75-6.05,7.18-5.96,11.06,.23,9.01,15.17,3.02,19.87,.59Z"/><path class="w" d="M266.71,246.57c6.02-2.08,9.48-9.28,1.96-10.92-5.77-1.25-15.46,2.3-14.61,9.36,.73,6.06,9.04,2.8,12.65,1.56Z"/></g><g><path class="u" d="M247.51,284.77c5.33-2.76,10.58-10.38,5.44-15.73-4.78-4.97-15.59-.34-19.35,4.08-2.34,2.75-6.06,7.19-5.96,11.07,.23,9.01,15.17,3.01,19.87,.58Z"/><path class="w" d="M245.39,281.41c6.02-2.08,9.48-9.27,1.96-10.91-5.77-1.25-15.46,2.3-14.62,9.36,.73,6.06,9.03,2.81,12.65,1.56Z"/></g><g><path class="u" d="M235.14,265.48c3.41-1.77,6.77-6.64,3.48-10.07-3.06-3.17-9.98-.21-12.38,2.61-1.5,1.77-3.87,4.6-3.81,7.09,.15,5.76,9.71,1.92,12.71,.38Z"/><path class="w" d="M233.79,263.34c3.85-1.34,6.07-5.94,1.26-6.99-3.69-.8-9.89,1.47-9.35,5.98,.46,3.88,5.78,1.8,8.09,1.01Z"/></g><path class="m" d="M296.54,206.62c.19,7.87-6.81,21.02-15.63,21.21-9.77,.23-18.16-13.06-21.71-20.45-2.01-4.17-.62-6.47-.88-11.05-.58-10.28-4.67-19.87,11.67-16.46,13.59,2.84,26.21,12,26.56,26.75Z"/><path class="n" d="M290.3,211.11c-4.59,11.77-16.86,11.7-16.98-1.43-.07-7.45,4.2-19.61,13.83-16.16,5.21,1.87,4.7,13.64,3.16,17.6Z"/><path class="n" d="M103.02,162.93c-3.76,.68-1.24,13.62,6.86,5.5,6.53-6.55-2.15-11.77-6.86-5.5"/><path class="n" d="M147.23,87.5c-3.75,.69-1.24,13.63,6.86,5.51,6.53-6.55-2.15-11.78-6.86-5.51"/></g></g><g><path class="o" d="M5.74,175.42l29.38-51.6c1.52-2.68,3.01-4.02,4.48-4.02s2.97,1.34,4.48,4.02l29.38,51.6h-12l-21.87-38.68-21.87,38.68H5.74Z"/><path class="o" d="M79.76,126.6c0-.95,.13-1.81,.39-2.58,.26-.77,.63-1.44,1.1-2s1.05-.99,1.71-1.29c.66-.3,1.4-.45,2.21-.45h4c.38,0,.76,.06,1.14,.18,.38,.12,.74,.29,1.08,.5s.66,.48,.95,.78c.29,.3,.54,.64,.76,1l20.47,36.21,20.47-36.21c.21-.37,.47-.7,.76-1,.29-.3,.61-.56,.95-.78s.7-.38,1.08-.5c.38-.12,.75-.18,1.14-.18h3.98c.81,0,1.54,.15,2.21,.45,.66,.3,1.23,.73,1.71,1.29s.85,1.22,1.1,2c.26,.77,.39,1.63,.39,2.58l.03,48.82h-9.86v-37.73l-19.47,34.19c-.24,.42-.51,.87-.83,1.34s-.67,.91-1.05,1.3c-.38,.39-.79,.72-1.23,.98-.44,.26-.9,.39-1.38,.39s-.93-.13-1.37-.39c-.44-.26-.85-.59-1.23-.98-.38-.39-.73-.83-1.05-1.3s-.59-.92-.83-1.34l-19.49-34.23v37.77h-9.86l.03-48.82Z"/><path class="o" d="M160.73,120.28h42.06c1.58,0,3.03,.22,4.35,.66,1.32,.44,2.5,1.05,3.57,1.82,1.06,.77,1.99,1.69,2.79,2.75,.8,1.06,1.46,2.2,1.99,3.44,.53,1.23,.93,2.53,1.2,3.9s.4,2.74,.4,4.14c0,1.98-.26,3.91-.79,5.79-.53,1.88-1.33,3.58-2.41,5.1,1.06,1.55,1.85,3.28,2.38,5.18,.53,1.9,.81,3.85,.82,5.83,0,1.38-.13,2.75-.39,4.11-.26,1.36-.65,2.65-1.17,3.87-.52,1.22-1.18,2.36-1.96,3.41-.79,1.05-1.71,1.96-2.77,2.72-1.06,.76-2.26,1.36-3.59,1.79s-2.8,.65-4.41,.65h-42.06c-.81,0-1.55-.15-2.21-.45-.66-.3-1.23-.73-1.71-1.29s-.85-1.22-1.1-2c-.26-.77-.39-1.63-.39-2.58v-42.5c0-.95,.13-1.81,.39-2.58,.26-.77,.63-1.44,1.1-2s1.05-.99,1.71-1.29c.66-.3,1.4-.45,2.21-.45Zm4.45,10.54v11.17h37.46c1,0,1.83-.28,2.49-.83,.66-.55,1.15-1.24,1.48-2.07,.33-.83,.49-1.72,.49-2.69s-.17-1.86-.51-2.69c-.34-.83-.83-1.52-1.49-2.07-.66-.55-1.48-.83-2.45-.83h-37.46Zm0,34.07h37.46c.63,0,1.18-.18,1.66-.53,.48-.35,.87-.82,1.19-1.4,.31-.58,.55-1.24,.71-1.98,.16-.74,.24-1.5,.24-2.27s-.08-1.53-.24-2.27c-.16-.74-.39-1.4-.71-1.98-.32-.58-.71-1.04-1.19-1.4-.48-.35-1.03-.53-1.66-.53h-37.46v12.37Z"/><path class="o" d="M223.77,169.1v-42.5c0-.95,.13-1.81,.39-2.58,.26-.77,.63-1.44,1.1-2s1.05-.99,1.71-1.29c.66-.3,1.4-.45,2.21-.45h54.99v10.54h-50.54v11.17h44.4v10.54h-44.4v12.37h50.54v10.54h-54.99c-.81,0-1.55-.15-2.21-.45-.66-.3-1.23-.73-1.71-1.29s-.85-1.22-1.1-2c-.26-.77-.39-1.63-.39-2.58Z"/><path class="o" d="M296.24,120.28h42.09c1.58,0,3.03,.22,4.34,.67s2.49,1.06,3.54,1.83c1.05,.77,1.97,1.69,2.75,2.76s1.43,2.22,1.95,3.46,.9,2.54,1.16,3.9c.26,1.36,.38,2.73,.37,4.11,0,1.41-.13,2.8-.39,4.18-.26,1.38-.65,2.69-1.16,3.93-.52,1.24-1.17,2.39-1.95,3.44-.78,1.05-1.69,1.96-2.74,2.73s-2.22,1.37-3.53,1.8c-1.31,.43-2.76,.65-4.34,.65h-.19l15.17,21.7h-12.22l-15.17-21.7h-25.24v21.7h-9.84l-.02-48.82c0-.95,.13-1.81,.39-2.58,.26-.77,.63-1.44,1.1-2s1.05-.99,1.71-1.29c.66-.3,1.4-.45,2.21-.45Zm41.91,22.9c.73,0,1.37-.18,1.92-.53s1.01-.82,1.38-1.4c.37-.58,.65-1.24,.83-1.98s.28-1.5,.29-2.27c0-.77-.08-1.53-.26-2.27-.18-.74-.45-1.4-.82-1.98s-.83-1.04-1.38-1.4c-.56-.35-1.21-.53-1.96-.53h-37.46v12.37h37.46Z"/></g><g><path d="M5.53,229.12v-42.5c0-.95,.17-1.8,.52-2.58,.34-.77,.83-1.44,1.47-2,.64-.56,1.39-.99,2.28-1.29,.88-.3,1.86-.45,2.94-.45H85.87v10.54H18.65v11.17h59.06v10.54H18.65v12.37H85.87v10.54H12.73c-1.08,0-2.06-.15-2.94-.45-.88-.3-1.64-.73-2.28-1.29-.64-.56-1.13-1.22-1.47-2-.34-.78-.52-1.63-.52-2.58Z"/><path d="M107.84,224.91h67.22v10.54H101.92c-1.08,0-2.06-.15-2.94-.45-.88-.3-1.64-.73-2.28-1.29-.64-.56-1.13-1.22-1.47-2-.34-.78-.52-1.63-.52-2.58v-48.82h13.12v44.6Z"/><path d="M183.91,229.12v-42.5c0-.95,.17-1.8,.52-2.58,.34-.77,.83-1.44,1.47-2,.63-.56,1.39-.99,2.28-1.29,.88-.3,1.86-.45,2.94-.45h73.14v10.54h-67.22v11.17h59.06v10.54h-59.06v12.37h67.22v10.54h-73.14c-1.08,0-2.06-.15-2.94-.45-.88-.3-1.64-.73-2.28-1.29-.64-.56-1.13-1.22-1.47-2-.34-.78-.52-1.63-.52-2.58Z"/><path d="M279.3,185.74c2-1.76,4.22-3.11,6.65-4.04,2.43-.93,5.07-1.4,7.93-1.4h59.82v10.54h-59.82c-1.06,0-2.06,.17-2.99,.52s-1.75,.83-2.44,1.44c-.7,.61-1.24,1.33-1.64,2.15-.4,.82-.59,1.7-.59,2.63v20.6c0,.87,.22,1.7,.65,2.51s1,1.52,1.71,2.15c.71,.62,1.53,1.13,2.44,1.51s1.87,.57,2.86,.57h59.82v10.54h-59.82c-1.42,0-2.8-.13-4.14-.39s-2.62-.63-3.86-1.11c-1.23-.48-2.4-1.05-3.51-1.72-1.11-.67-2.13-1.4-3.07-2.21-1.96-1.67-3.48-3.59-4.56-5.76-1.08-2.17-1.63-4.52-1.63-7.04v-18.67c0-2.52,.53-4.84,1.59-6.97,1.06-2.13,2.59-4.07,4.6-5.83Z"/></g></g><g id="e"/><g id="f"/><g id="g"/><g id="h"/></svg>