<?xml version="1.0" encoding="UTF-8"?><svg id="a" xmlns="http://www.w3.org/2000/svg" viewBox="0 0 497.11 127.37"><defs><style>.b{fill:#f7c911;}.c{fill:#674018;}.d{fill:#ecb21f;}.e{fill:#f3be18;}.f{fill:#fff;}.g{fill:#ffe24b;}.h{fill:#ffefb2;}.i{fill:#ffbf00;}.j{fill:#b2832c;}.k{fill:#a66f29;}.l{fill:#bf832b;}.m{fill:#d49429;}.n{fill:#955c25;}.o{fill:#a36828;}.p{fill:#7a4d1f;}.q{fill:#844b1f;}</style></defs><g><path class="l" d="M98.06,85.82c-1.09-12.29,16.19-17.29,25.57-16.77"/><path class="j" d="M99.57,12.56c17.81,9.99,30.04,31.49,30.04,51.81,0,31.26-28.07,56.6-62.69,56.6S4.24,95.63,4.24,64.37c0-19.98,10.54-42.29,28.44-51.31,24.11-12.15,57.31-5.86,66.9-.49Z"/><path class="d" d="M95.26,22.11c10.62,4.19,19.82,14.38,26.8,23.22,6.59,8.36,2.6,25.72-1.78,34.48-5.24,10.45-14.81,17.63-25.49,21.89-16.72,6.67-32.29,5.89-48.76-.87-9.96-4.09-17.89-8.9-24.34-17.84-7.16-9.93-7.55-22.59-3.23-33.77,4.68-12.09,12.44-19.94,24.52-24.36,11.16-4.08,23.86-7.36,35.83-6.64,5.78,.35,11.23,1.82,16.47,3.89Z"/><path class="e" d="M96.56,21.67c7.77,3.06,11.9,8.39,17.34,14.31-11.16-.51-25.08,11.83-32.7,18.7-9.05,8.15-17.43,17.94-27.32,25.03-7.24,5.18-18.55,7.48-26.57,3.27-10.89-5.73-11.38-24.31-7.56-34.19,4.68-12.1,12.44-19.95,24.51-24.37,11.17-4.08,23.86-7.35,35.83-6.64,5.78,.35,11.23,1.83,16.47,3.89Z"/><path class="m" d="M95.26,22.98c9.11,3.59,15.85,10.71,22.34,17.75,5.98,6.48,7.86,10.07,9.64,18.88-5.13-5.84-8.52-12.84-15-17.48-6.66-4.78-15.14-7.25-23.16-8.43-15.83-2.33-33.62,.1-47.4,8.57-11.97,7.35-22.21,18.68-22.64,33.44-.16,5.5,2.11,10.71,4.33,15.66,3.1,6.9,8.92,10.79,12.62,16.91-18.4-.1-28.91-28.38-28.91-43.12,0-19.7,19.2-33.33,35.88-39.43,11.16-4.08,23.86-7.36,35.83-6.64,5.78,.35,11.23,1.82,16.47,3.89Z"/><path class="b" d="M116.85,49.91c6,4.76,10.12,13.28,8.49,19.73-3.58,14.25-11.62,29.49-26.86,33.67-9.22,2.53-17.29,1.08-25.92-3.22-4.07-2.02-13.42-6.62-13.93-11.91-.88-9,18.07-17.39,23.91-21.22,4.27-2.8,8.83-6.32,12.27-10.09,2.14-2.35,3.55-6.3,6.05-8.19,5.24-3.95,11.22-2.56,16,1.22Z"/><path class="o" d="M10.74,44.68c-2.56,6.21-2.95,12.92-2.5,19.57,6.86-13.59,12.88-26.01,27.22-33.41,11.6-5.98,23.88-6.09,36.68-6.09,10.16,0,18.92,1.38,28.28,5.22,3.58,1.47,7.19,2.55,10.34,4.85,3.63,2.65,6.36,6.52,10.27,8.77-2.63-5.44-6.76-9.93-9.98-14.99-2.01-3.16-3.46-6.8-5.81-9.72-7.39-9.17-18.95-6.18-29.02-5.76-14.27,.59-29.7-3.1-42.59,4.66-10.34,6.23-18.3,15.75-22.89,26.89Z"/><path class="q" d="M87.76,8.17c4.58,1.37,8.89,3.36,12.55,6.11,4.21,3.16,7.34,6.76,10.05,11.26-6.22-6.62-18.32-8.05-26.79-9.39-6.84-1.09-13.77-.72-20.68-.08-5.67,.54-11.24,.46-16.86,1.5-4.61,.85-8.88,2.8-13.43,3.82-1.85,.42-7.96,3.21-9.44,1.88,1.69-3,6.05-5.95,8.9-7.88,3.2-2.17,6.56-3.93,10.07-5.57,6.48-3.03,14.92-3.47,21.97-3.96,7.5-.53,15.97,.02,23.65,2.32Z"/><path class="l" d="M104.37,29.98c5.7,7.34,3.01,16.02-1.95,22.92-6.01,8.35-12.19,13.15-20.31,19.15,1.83-3.19,6.59-8.17,5.76-12.2-1.16-5.69-7.06-1.81-10.83-.8-7.54,2.03-15.34,4.93-21.34,10.22-4.45,3.92-6.95,10.31-11.34,13.79-.34-5.52-.73-11.48,.36-16.95,1.36-6.84,5.25-11.23,11.67-14.47,5.25-2.66,19.26-8.02,19.24-15.13,0-4.79-9.23-7.79-13.45-8.36,4.29-4.72,14.98-4.51,20.95-4.8,7.27-.34,16.36,.33,21.25,6.63Z"/><path class="p" d="M95.97,75.76c-.07,.63-.16,1.25-.29,1.86-1.3,5.95-3.64,11.58-6.16,17.1-2.19,4.81-8.69,15.12-15.01,14.5-.42-8.36,.41-15.52,2.51-23.68,1.19-4.61,3.09-11.67,1.89-16.34-2.55,2.18-5.99,6.4-6.84,9.78-.82,3.25,.85,6.78,.64,10-.48,7.11-7.88,18.36-14,21.71-.18-.06-.33-.17-.44-.32,3.81-5.47,10.26-11.04,11.19-17.97,.48-3.54,.17-8.76-1.15-12.06-1.62,3.16-1.68,5.64-2.04,9.1-.22,2.09-.9,3.4-1.94,5.2-1.37,2.38-2.81,4.71-4.27,7.04-.85,1.37-4.04,7.74-5.71,7.38,1.21-4.7,5.3-8.66,7.8-12.79,.85-1.41,2.21-3.3,2.4-4.94,.12-1.18-.79-2.01-.81-3-1.38,2.26-2.67,4.2-4.45,6.24-1.86,2.13-3.82,4.17-5.95,6.04-4.13,3.65-9.09,6.97-14.68,7.7-6.28,.82-14.02-5.23-8.14-11.29,3.36-3.45,9.18-5.98,13.12-9.07,3.63-2.84,6.97-6.11,9.78-9.77,1.11-1.44,2.17-2.47,3.54-3.62,1.56-1.32,2.57-3.15,4.04-4.57,1.07-1.04,2.27-1.93,3.39-2.92,.97-.86,1.78-2.03,2.9-2.68-1.18,.02-3.7,2.17-4.81,2.82-1.62,.94-3.34,1.73-5.03,2.58-1.51,.75-2.98,1.55-4.34,2.54-1.97,1.44-3.74,3.18-5.47,4.9-2.41,2.39-17.39,20.61-20.03,11.63-.63-2.15,0-6.21,.54-8.32,1.56-6.06,5.39-11.41,9.64-15.78,6.71-6.9,16.72-12.84,26.17-15.08,1.59-.38,5.32,.52,6.52-.35,1.55-1.14,.72-4.2,.61-5.83-.2-2.68-.64-5.34-1.3-7.95-.09-.36-.4-1.3-.36-1.69,.06-.87,.02-.45,.6-1.14,.64-.76,1.45-1.31,2.09-2.06,1.59-1.87,2.54-4.3,4.19-6.2,.96-1.1,2.19-2.43,2.67-3.8,.44-1.25-.12-3.08,.53-4.09,.54,.83-.05,2.03,.38,2.98,.89-.29,1.44-1.2,2.4-1.36-.09,1.12-1.01,1.36-1.8,2.04-1.01,.88-1.61,2.04-2.17,3.24-1.26,2.73-2.58,5.73-4.42,8.13-.83,1.1-1.29,1.37-1.29,2.52,0,1.87,.87,3.77,1.32,5.58,.62,2.51,.28,6.45,1.53,8.59-.07-.13,1.07-2.5,1.15-2.88,.22-.97,.41-2,.61-3,.45-2.22,.59-4.69,1.72-6.7,.68-1.21,1.52-2.82,2.54-3.77,1.06-.99,2.54-1.39,3.4-2.65,.94-1.39-.51-3.11,.39-4.43,.35,.73-.03,1.48,.3,2.19,.67-.17,.98-.82,1.43-1.32-1.14,2.1-.13,3.96-1.85,5.83-1.12,1.22-3.8,2.21-4.28,3.87-.49,1.68,.94,1.03,1.4,1.91,.51,.98-.84,2.21-1.34,2.96-1.11,1.63-1.92,3.63-2.26,5.59-.25,1.47-.24,1.66,1.16,2.09,.9,.28,1.69,.65,2.66,.53,2.04-.27,2.22-1.6,2.1-3.34-.14-2.06-.13-4.38,1.23-6.09,.77-.97,1.37-1.27,2.46-1.71,2.57-1.03,4.74-3.87,6.12-6.19,1.39-2.32,2.51-4.89,3.17-7.49,.78-3.06,1.88-7.87-2.04-9.29-2.93-1.07-6.35,1.26-7.51,3.98-.33,.77-.98,2.5,.06,2.77,.59,.15,1.57-.69,2.19-.79,.74,1.61-5.16,4.05-3.9-1.18,.89-3.72,5.54-6.89,9.22-5.51,5.8,2.18,3.5,10.89,1.44,15.08-.99,1.99-2.37,3.78-3.02,5.92-1.19,3.86,2.6,1.55,4.5,.95,2.55-.81,5.7-.95,8.31-.55,6.01,.91,8.42,10.68,7.63,15.54-.48,2.95-2.48,6.59-5.85,6.24-4.68-.47-3.58-7.79-.97-5.39-2.38,1.51-.88,4.5,1.76,3.93,3.13-.67,3.68-7.18,3.51-9.55-.27-3.92-2.16-7.56-5.96-9.02-1.12-.43-11.28,.32-10.35,1.75,.57,.88,.54,2.07,1.13,2.77,.53,.63,1.63,.56,2.22,1.17,1.43,1.48,.36,4.62-.8,5.96-.93,1.07-2.33,2.09-3.73,1.91-.98-.12-2.55-.26-3.13,.76-.69,1.22,.34,2.36,1.41,2.68,2.28,.66,5.07-.99,6.96-2.11,1.95-1.16,3.17-3.07,2.5-5.24-.56-1.84-1.14-4.39-.02-6.17,.59-.95,2.48-1.81,3.48-1.02-.66,.18-1.84,.77-2.14,1.32,.92,.36,1.82,.18,2.51,1.11-.92,.51-2.21-.51-2.98-.03-.8,.51-.71,2.42-.5,3.28,.26,1.04,.72,2.21,1.22,3.13,.83,1.53,1.13,.25,2.17,.86-.4,.84-1.67,1.44-2.36,2.11-.89,.86-1.74,1.67-2.78,2.35-1.34,.87-2.66,2.04-4.03,2.74-1.45,.74-3.29,.56-4.54,1.76-.98,.94-.09,1.54,.32,2.86,1.47,4.62,2.97,10.02,2.46,14.99Z"/><path class="n" d="M65.53,64.9c3.47-1.56,9.38-2.05,11.61-5.53,1.41-2.22,1.25-5.32-1.05-6.73-4.11-2.52-11.88-1.6-16.32-.43-5.66,1.49-11,4.29-15.47,8.07-6.02,5.1-12.11,12.65-14.32,20.26-.47,1.63-2.27,7.05-.65,8.21,1.72,1.23,5-1.32,6.27-2.31,5.32-4.1,9.28-9.61,14.53-13.89,4.4-3.57,10.25-5.33,15.42-7.65Z"/><path class="n" d="M93.91,75.02c-.13-2.84-2-26.33-8.37-20.89-3.69,3.15-4.02,8.51-4.18,13.01-.15,4.22,.41,9.07-.61,13.18-1.81,7.34-5.82,16.44-4.19,24.17,1.51,7.15,10.6-8.91,11.85-10.81,3.69-5.59,5.82-11.87,5.5-18.66Z"/><path class="c" d="M39.75,97.75c-.61,3.28,6.58,6.17,1.03,8.08-3.54,1.22-9.04,.24-10.1-3.93-.45-1.79-.72-3.84,.89-5.02,1.99-1.45,4.78-1.93,6.88-3.35,2.33-1.58,3.29-1.98,5.45,.21,.46,.47,1.6,2.72,2.22,2.83,1.58,.28,.77-1.54,.22-2.55-1.47-2.69-3.3-2.69-.72-5.34,2.27-2.34,3.21-2.96,5.96-.66,.79,.66,1.89,2.76,3.13,2.43,1.82-.48,0-2.48-.61-3.14-2.06-2.2-3.39-2.06-1.43-4.84,.73-1.02,2.7-4.44,4-4.81,1.57-.45,4.97,2.8,6.42,1.52,1.5-1.33-3.08-3.03-3.75-3.65,1.88-1.08,4.38-4.42,5.08-6.43,1.24,.74,3.42,3.03,3.5,4.43,.15,2.46-2.7,6.8-3.76,8.94-1.78,3.58-4.15,7.86-6.83,10.84-2.35,2.63-5.12,5.26-7.99,7.22-.98,.68-2.69,1.93-3.91,1.77-2.28-.31-3.86-3.83-5.69-4.55Z"/><path class="k" d="M37.09,70.66c1.71-1.82,3.67-3.33,5.92-3.98,0,1.48,.56,3.5,1.97,3.92,.12-2.19-.64-5.15-.42-7.01,.44-3.73,7.05-6.38,10.1-7.78,1.29-.59,2.47-1.3,3.46-.28,.69,.71,.64,3.13,.36,4.01-1.32,4.16-4.45,7.19-7.23,10.39-2.22,2.55-5.27,3.86-7.55,6.4-2.46,2.74-7.26,9.74-11.63,8.82-4.35-.91-.68-6.73,.64-8.72,1.24-1.86,2.69-3.97,4.39-5.78Z"/><path class="n" d="M97.62,46.01c-2.02,3.16-7.97,2.8-10.17,0-1.68-2.12-1.97-7.12,1.1-8.23,2.34-.85,8.61,.61,7.16,4.16,1.68,.66,3.06,2.27,1.91,4.06Z"/><path class="k" d="M94.58,45.24c1.75-2.55-2.87-7.25-5.47-6.22-2.19,.87-3.73,5.06-4.18,7.16-.65,3.05-1.2,5.1,2.36,3.79,2.35-.87,5.82-2.6,7.28-4.73Z"/><path class="k" d="M85.8,95.74c-1.23,1.5-5.86,15.12-9.7,11.24-1.44-1.45,.77-6.36,1.12-8.08,.61-2.97,2.43-6.17,2.59-9.17,.08-1.48-.88-3.57,1.15-3.93,.72-.13,2.23,.92,3.04,1.07,.82,.15,2.31,.04,2.83,.13-1.2-1.53-3.58-2.85-5.45-3.21,2.75-2.78,.03-8.07,1.24-11.47,0,0,.81-1.04,.93-1.25,.65-1.07,1.26-2.23,1.95-3.3,1.16-1.81,2.48-3.93,4.26-5.22-1.19,2.26-3.34,4.53-4.37,6.8-.72,1.58,.27,3.24-.25,4.81,2.06,.79,4.79-3.21,7-3.5-.53,.78-2.17,1.93-2.42,2.78-.4,1.37,1.02,2.74,1.12,4.25,.13,1.84-1.17,2.06-1.51,3.56-.37,1.63,.84,4.26,.63,6.14-.43,3.85-1.84,5.53-4.15,8.35Z"/><path class="c" d="M77.3,66.33c-1.26,2.94-4.69,6.58-7.19,8.49,2.77-4.08,2.92-9.02-2.38-10.53,.94-2.5,4.47-3.09,5.51-5.89,.77-2.07,.12-4.71-1.14-6.55,3.65-.1,7.56-2.41,11-1.99-.93,3.97-3.26,6.93-4.76,10.53-.77,1.86-.33,4.27-1.04,5.94Z"/><g><path class="o" d="M61.59,39.62c2.26-1.17,4.48-4.4,2.3-6.66-2.03-2.1-6.6-.14-8.2,1.73-.99,1.16-2.56,3.04-2.52,4.69,.1,3.82,6.43,1.28,8.42,.25Z"/><path class="q" d="M60.69,38.19c2.55-.88,4.02-3.92,.83-4.62-2.44-.53-6.55,.97-6.19,3.96,.31,2.57,3.83,1.19,5.36,.66Z"/></g><g><path class="o" d="M104.55,92.93c2.26-1.17,4.48-4.4,2.3-6.67-2.03-2.1-6.6-.14-8.2,1.73-.99,1.17-2.56,3.04-2.52,4.69,.1,3.82,6.43,1.28,8.42,.25Z"/><path class="q" d="M103.65,91.51c2.55-.88,4.02-3.93,.83-4.62-2.44-.53-6.55,.97-6.19,3.96,.31,2.57,3.83,1.19,5.36,.66Z"/></g><g><path class="o" d="M95.52,107.69c2.26-1.17,4.48-4.4,2.3-6.66-2.03-2.11-6.6-.14-8.2,1.73-.99,1.17-2.56,3.04-2.52,4.69,.1,3.82,6.43,1.28,8.42,.25Z"/><path class="q" d="M94.62,106.27c2.55-.88,4.02-3.92,.83-4.62-2.44-.53-6.55,.97-6.19,3.96,.31,2.57,3.83,1.19,5.36,.66Z"/></g><g><path class="o" d="M90.28,99.52c1.44-.75,2.87-2.81,1.48-4.26-1.3-1.34-4.23-.09-5.24,1.1-.63,.75-1.64,1.95-1.61,3,.06,2.44,4.11,.82,5.38,.16Z"/><path class="q" d="M89.71,98.62c1.63-.57,2.57-2.52,.53-2.96-1.56-.34-4.19,.62-3.96,2.53,.2,1.64,2.45,.76,3.43,.43Z"/></g><path class="g" d="M116.29,74.59c.08,3.33-2.89,8.9-6.62,8.98-4.14,.1-7.69-5.53-9.2-8.66-.85-1.77-.26-2.74-.37-4.68-.25-4.36-1.98-8.41,4.94-6.97,5.76,1.2,11.1,5.08,11.25,11.33Z"/><path class="h" d="M113.64,76.49c-1.95,4.99-7.14,4.96-7.19-.61-.03-3.16,1.78-8.31,5.86-6.85,2.21,.79,1.99,5.78,1.34,7.45Z"/><path class="h" d="M34.32,56.08c-1.59,.29-.52,5.77,2.91,2.33,2.76-2.78-.91-4.99-2.91-2.33"/><path class="h" d="M53.04,24.14c-1.59,.29-.52,5.77,2.91,2.33,2.77-2.78-.91-4.99-2.91-2.33"/></g><g><path class="i" d="M144.89,60.94l29.38-51.6c1.52-2.68,3.01-4.02,4.48-4.02s2.97,1.34,4.48,4.02l29.38,51.6h-12l-21.87-38.68-21.87,38.68h-12Z"/><path class="i" d="M218.91,12.12c0-.95,.13-1.81,.39-2.58,.26-.77,.63-1.44,1.1-2s1.05-.99,1.71-1.29c.66-.3,1.4-.45,2.21-.45h4c.38,0,.76,.06,1.14,.18,.38,.12,.74,.29,1.08,.5s.66,.48,.95,.78c.29,.3,.54,.64,.76,1l20.47,36.21,20.47-36.21c.21-.37,.47-.7,.76-1,.29-.3,.61-.56,.95-.78s.7-.38,1.08-.5c.38-.12,.75-.18,1.14-.18h3.98c.81,0,1.54,.15,2.21,.45,.66,.3,1.23,.73,1.71,1.29s.85,1.22,1.1,2c.26,.77,.39,1.63,.39,2.58l.03,48.82h-9.86V23.21l-19.47,34.19c-.24,.42-.51,.87-.83,1.34s-.67,.91-1.05,1.3c-.38,.39-.79,.72-1.23,.98-.44,.26-.9,.39-1.38,.39s-.93-.13-1.37-.39c-.44-.26-.85-.59-1.23-.98-.38-.39-.73-.83-1.05-1.3s-.59-.92-.83-1.34l-19.49-34.23V60.94h-9.86l.03-48.82Z"/><path class="i" d="M299.88,5.8h42.06c1.58,0,3.03,.22,4.35,.66,1.32,.44,2.5,1.05,3.57,1.82,1.06,.77,1.99,1.69,2.79,2.75,.8,1.06,1.46,2.2,1.99,3.44,.53,1.23,.93,2.53,1.2,3.9s.4,2.74,.4,4.14c0,1.98-.26,3.91-.79,5.79-.53,1.88-1.33,3.58-2.41,5.1,1.06,1.55,1.85,3.28,2.38,5.18,.53,1.9,.81,3.85,.82,5.83,0,1.38-.13,2.75-.39,4.11-.26,1.36-.65,2.65-1.17,3.87-.52,1.22-1.18,2.36-1.96,3.41-.79,1.05-1.71,1.96-2.77,2.72-1.06,.76-2.26,1.36-3.59,1.79s-2.8,.65-4.41,.65h-42.06c-.81,0-1.55-.15-2.21-.45-.66-.3-1.23-.73-1.71-1.29s-.85-1.22-1.1-2c-.26-.77-.39-1.63-.39-2.58V12.12c0-.95,.13-1.81,.39-2.58,.26-.77,.63-1.44,1.1-2s1.05-.99,1.71-1.29c.66-.3,1.4-.45,2.21-.45Zm4.45,10.54v11.17h37.46c1,0,1.83-.28,2.49-.83,.66-.55,1.15-1.24,1.48-2.07,.33-.83,.49-1.72,.49-2.69s-.17-1.86-.51-2.69c-.34-.83-.83-1.52-1.49-2.07-.66-.55-1.48-.83-2.45-.83h-37.46Zm0,34.07h37.46c.63,0,1.18-.18,1.66-.53,.48-.35,.87-.82,1.19-1.4,.31-.58,.55-1.24,.71-1.98,.16-.74,.24-1.5,.24-2.27s-.08-1.53-.24-2.27c-.16-.74-.39-1.4-.71-1.98-.32-.58-.71-1.04-1.19-1.4-.48-.35-1.03-.53-1.66-.53h-37.46v12.37Z"/><path class="i" d="M362.91,54.62V12.12c0-.95,.13-1.81,.39-2.58,.26-.77,.63-1.44,1.1-2s1.05-.99,1.71-1.29c.66-.3,1.4-.45,2.21-.45h54.99v10.54h-50.54v11.17h44.4v10.54h-44.4v12.37h50.54v10.54h-54.99c-.81,0-1.55-.15-2.21-.45-.66-.3-1.23-.73-1.71-1.29s-.85-1.22-1.1-2c-.26-.77-.39-1.63-.39-2.58Z"/><path class="i" d="M435.39,5.8h42.09c1.58,0,3.03,.22,4.34,.67s2.49,1.06,3.54,1.83c1.05,.77,1.97,1.69,2.75,2.76s1.43,2.22,1.95,3.46,.9,2.54,1.16,3.9c.26,1.36,.38,2.73,.37,4.11,0,1.41-.13,2.8-.39,4.18-.26,1.38-.65,2.69-1.16,3.93-.52,1.24-1.17,2.39-1.95,3.44-.78,1.05-1.69,1.96-2.74,2.73s-2.22,1.37-3.53,1.8c-1.31,.43-2.76,.65-4.34,.65h-.19l15.17,21.7h-12.22l-15.17-21.7h-25.24v21.7h-9.84l-.02-48.82c0-.95,.13-1.81,.39-2.58,.26-.77,.63-1.44,1.1-2s1.05-.99,1.71-1.29c.66-.3,1.4-.45,2.21-.45Zm41.91,22.9c.73,0,1.37-.18,1.92-.53s1.01-.82,1.38-1.4c.37-.58,.65-1.24,.83-1.98s.28-1.5,.29-2.27c0-.77-.08-1.53-.26-2.27-.18-.74-.45-1.4-.82-1.98s-.83-1.04-1.38-1.4c-.56-.35-1.21-.53-1.96-.53h-37.46v12.37h37.46Z"/></g><g><path class="f" d="M144.68,114.64v-42.5c0-.95,.17-1.8,.52-2.58,.34-.77,.83-1.44,1.47-2,.64-.56,1.39-.99,2.28-1.29,.88-.3,1.86-.45,2.94-.45h73.14v10.54h-67.22v11.17h59.06v10.54h-59.06v12.37h67.22v10.54h-73.14c-1.08,0-2.06-.15-2.94-.45-.88-.3-1.64-.73-2.28-1.29-.64-.56-1.13-1.22-1.47-2-.34-.78-.52-1.63-.52-2.58Z"/><path class="f" d="M246.99,110.43h67.22v10.54h-73.14c-1.08,0-2.06-.15-2.94-.45-.88-.3-1.64-.73-2.28-1.29-.64-.56-1.13-1.22-1.47-2-.34-.78-.52-1.63-.52-2.58v-48.82h13.12v44.6Z"/><path class="f" d="M323.06,114.64v-42.5c0-.95,.17-1.8,.52-2.58,.34-.77,.83-1.44,1.47-2,.63-.56,1.39-.99,2.28-1.29,.88-.3,1.86-.45,2.94-.45h73.14v10.54h-67.22v11.17h59.06v10.54h-59.06v12.37h67.22v10.54h-73.14c-1.08,0-2.06-.15-2.94-.45-.88-.3-1.64-.73-2.28-1.29-.64-.56-1.13-1.22-1.47-2-.34-.78-.52-1.63-.52-2.58Z"/><path class="f" d="M418.44,71.26c2-1.76,4.22-3.11,6.65-4.04,2.43-.93,5.07-1.4,7.93-1.4h59.82v10.54h-59.82c-1.06,0-2.06,.17-2.99,.52s-1.75,.83-2.44,1.44c-.7,.61-1.24,1.33-1.64,2.15-.4,.82-.59,1.7-.59,2.63v20.6c0,.87,.22,1.7,.65,2.51s1,1.52,1.71,2.15c.71,.62,1.53,1.13,2.44,1.51s1.87,.57,2.86,.57h59.82v10.54h-59.82c-1.42,0-2.8-.13-4.14-.39s-2.62-.63-3.86-1.11c-1.23-.48-2.4-1.05-3.51-1.72-1.11-.67-2.13-1.4-3.07-2.21-1.96-1.67-3.48-3.59-4.56-5.76s-1.63-4.52-1.63-7.04v-18.67c0-2.52,.53-4.84,1.59-6.97,1.06-2.13,2.59-4.07,4.6-5.83Z"/></g></svg>