<?xml version="1.0" encoding="UTF-8"?><svg id="a" xmlns="http://www.w3.org/2000/svg" viewBox="0 0 739.96 88.4"><defs><style>.b{fill:#f7c911;}.c{fill:#674018;}.d{fill:#ecb21f;}.e{fill:#f3be18;}.f{fill:#fff;}.g{fill:#ffe24b;}.h{fill:#ffefb2;}.i{fill:#ffbf00;}.j{fill:#b2832c;}.k{fill:#a66f29;}.l{fill:#bf832b;}.m{fill:#d49429;}.n{fill:#955c25;}.o{fill:#a36828;}.p{fill:#7a4d1f;}.q{fill:#844b1f;}</style></defs><g><path class="l" d="M388.41,58.46c-.72-8.04,10.6-11.32,16.75-10.98"/><path class="j" d="M389.4,10.49c11.66,6.54,19.67,20.62,19.67,33.92,0,20.47-18.38,37.06-41.05,37.06s-41.05-16.59-41.05-37.06c0-13.09,6.9-27.69,18.62-33.6,15.79-7.96,37.53-3.84,43.8-.32Z"/><path class="d" d="M386.57,16.75c6.95,2.74,12.98,9.42,17.55,15.21,4.32,5.47,1.71,16.84-1.17,22.58-3.43,6.85-9.69,11.54-16.69,14.33-10.95,4.37-21.14,3.86-31.93-.57-6.52-2.68-11.72-5.83-15.94-11.68-4.69-6.5-4.94-14.79-2.11-22.11,3.06-7.92,8.14-13.06,16.05-15.95,7.31-2.67,15.62-4.82,23.46-4.35,3.79,.23,7.35,1.19,10.78,2.55Z"/><path class="e" d="M387.43,16.46c5.09,2.01,7.79,5.49,11.35,9.37-7.31-.33-16.42,7.75-21.41,12.25-5.93,5.34-11.41,11.75-17.89,16.39-4.74,3.39-12.15,4.9-17.4,2.14-7.13-3.76-7.45-15.92-4.95-22.39,3.06-7.92,8.14-13.06,16.05-15.96,7.31-2.67,15.63-4.81,23.46-4.35,3.79,.23,7.35,1.2,10.78,2.55Z"/><path class="m" d="M386.57,17.32c5.97,2.35,10.38,7.01,14.63,11.62,3.91,4.24,5.15,6.6,6.31,12.36-3.36-3.82-5.58-8.41-9.82-11.45-4.36-3.13-9.92-4.75-15.17-5.52-10.37-1.52-22.01,.07-31.04,5.61-7.83,4.81-14.54,12.23-14.82,21.9-.1,3.6,1.38,7.01,2.83,10.26,2.03,4.52,5.84,7.07,8.27,11.07-12.05-.07-18.93-18.58-18.93-28.24,0-12.9,12.57-21.83,23.49-25.82,7.31-2.67,15.62-4.82,23.46-4.35,3.79,.23,7.35,1.19,10.78,2.55Z"/><path class="b" d="M400.71,34.95c3.93,3.11,6.63,8.7,5.56,12.92-2.35,9.33-7.61,19.31-17.59,22.05-6.04,1.66-11.32,.71-16.97-2.11-2.66-1.32-8.79-4.34-9.12-7.8-.57-5.89,11.83-11.39,15.65-13.9,2.8-1.83,5.78-4.14,8.03-6.6,1.4-1.54,2.32-4.12,3.96-5.36,3.43-2.59,7.35-1.68,10.48,.8Z"/><path class="o" d="M331.24,31.52c-1.67,4.06-1.93,8.46-1.64,12.81,4.49-8.9,8.43-17.03,17.82-21.87,7.59-3.92,15.64-3.99,24.02-3.99,6.65,0,12.39,.9,18.52,3.42,2.34,.96,4.71,1.67,6.77,3.18,2.38,1.74,4.17,4.27,6.72,5.75-1.72-3.56-4.43-6.5-6.54-9.82-1.32-2.07-2.26-4.45-3.8-6.36-4.84-6-12.41-4.05-19-3.77-9.34,.38-19.45-2.03-27.88,3.05-6.77,4.08-11.99,10.31-14.99,17.6Z"/><path class="q" d="M381.67,7.62c3,.89,5.82,2.2,8.21,4,2.75,2.07,4.8,4.42,6.58,7.37-4.08-4.34-12-5.27-17.54-6.15-4.48-.71-9.01-.47-13.54-.05-3.72,.35-7.36,.3-11.04,.98-3.02,.56-5.82,1.83-8.79,2.5-1.21,.27-5.21,2.1-6.18,1.23,1.11-1.96,3.96-3.89,5.83-5.16,2.1-1.42,4.3-2.57,6.6-3.65,4.24-1.99,9.77-2.27,14.38-2.59,4.91-.34,10.45,.01,15.49,1.52Z"/><path class="l" d="M392.54,21.9c3.73,4.81,1.97,10.49-1.28,15.01-3.93,5.47-7.98,8.61-13.3,12.54,1.2-2.09,4.31-5.35,3.77-7.99-.76-3.73-4.62-1.19-7.09-.52-4.94,1.33-10.05,3.23-13.97,6.69-2.92,2.57-4.55,6.75-7.43,9.03-.22-3.61-.47-7.52,.24-11.1,.89-4.48,3.44-7.35,7.64-9.48,3.44-1.74,12.61-5.25,12.6-9.91,0-3.14-6.04-5.1-8.81-5.47,2.81-3.09,9.81-2.96,13.72-3.14,4.76-.22,10.72,.22,13.91,4.34Z"/><path class="p" d="M387.04,51.88c-.04,.41-.11,.82-.19,1.22-.85,3.89-2.39,7.58-4.03,11.2-1.44,3.15-5.69,9.9-9.83,9.49-.27-5.47,.27-10.16,1.64-15.51,.78-3.02,2.03-7.64,1.24-10.7-1.67,1.43-3.92,4.19-4.48,6.4-.53,2.13,.56,4.44,.42,6.55-.32,4.66-5.16,12.02-9.17,14.21-.12-.04-.21-.11-.29-.21,2.5-3.58,6.72-7.23,7.33-11.76,.31-2.32,.11-5.73-.75-7.9-1.06,2.07-1.1,3.69-1.34,5.96-.14,1.37-.59,2.23-1.27,3.41-.9,1.56-1.84,3.08-2.79,4.61-.56,.9-2.65,5.07-3.74,4.83,.79-3.08,3.47-5.67,5.11-8.38,.55-.92,1.45-2.16,1.57-3.24,.08-.77-.52-1.32-.53-1.97-.9,1.48-1.75,2.75-2.91,4.09-1.22,1.4-2.5,2.73-3.9,3.96-2.7,2.39-5.95,4.57-9.61,5.04-4.11,.54-9.18-3.43-5.33-7.39,2.2-2.26,6.01-3.92,8.59-5.94,2.38-1.86,4.56-4,6.4-6.4,.73-.94,1.42-1.61,2.32-2.37,1.02-.87,1.68-2.06,2.64-2.99,.7-.68,1.49-1.26,2.22-1.91,.64-.56,1.16-1.33,1.9-1.76-.77,.01-2.42,1.42-3.15,1.85-1.06,.62-2.19,1.14-3.29,1.69-.99,.49-1.95,1.02-2.84,1.66-1.29,.94-2.45,2.09-3.58,3.21-1.58,1.57-11.38,13.5-13.11,7.61-.41-1.41,0-4.06,.35-5.45,1.02-3.97,3.53-7.47,6.31-10.33,4.39-4.52,10.95-8.41,17.14-9.87,1.04-.25,3.49,.34,4.27-.23,1.01-.74,.47-2.75,.4-3.82-.13-1.76-.42-3.5-.85-5.21-.06-.24-.26-.85-.24-1.11,.04-.57,.02-.3,.39-.74,.42-.5,.95-.86,1.37-1.35,1.04-1.23,1.66-2.81,2.74-4.06,.63-.72,1.44-1.59,1.75-2.49,.29-.82-.08-2.02,.35-2.68,.36,.54-.03,1.33,.25,1.95,.58-.19,.94-.79,1.57-.89-.06,.73-.66,.89-1.18,1.34-.66,.58-1.06,1.34-1.42,2.12-.82,1.78-1.69,3.76-2.89,5.32-.55,.72-.85,.9-.85,1.65,0,1.23,.57,2.47,.86,3.66,.41,1.65,.18,4.22,1,5.63-.05-.08,.7-1.64,.75-1.88,.15-.63,.27-1.31,.4-1.97,.29-1.45,.38-3.07,1.13-4.39,.44-.79,.99-1.84,1.66-2.47,.69-.65,1.66-.91,2.23-1.74,.62-.91-.33-2.04,.26-2.9,.23,.48-.02,.97,.2,1.43,.44-.11,.64-.53,.94-.87-.74,1.38-.09,2.59-1.21,3.82-.74,.8-2.49,1.45-2.8,2.53-.32,1.1,.62,.67,.92,1.25,.33,.64-.55,1.45-.88,1.93-.73,1.07-1.26,2.38-1.48,3.66-.17,.96-.16,1.09,.76,1.37,.59,.18,1.11,.43,1.74,.34,1.34-.18,1.45-1.05,1.37-2.18-.09-1.35-.08-2.87,.8-3.99,.5-.63,.9-.83,1.61-1.12,1.68-.68,3.11-2.54,4.01-4.05,.91-1.52,1.64-3.2,2.07-4.91,.51-2.01,1.23-5.15-1.34-6.08-1.92-.7-4.16,.82-4.92,2.61-.21,.51-.64,1.64,.04,1.81,.39,.1,1.03-.45,1.43-.52,.48,1.05-3.38,2.66-2.55-.77,.58-2.43,3.63-4.51,6.04-3.61,3.8,1.43,2.29,7.13,.94,9.87-.65,1.3-1.55,2.47-1.98,3.88-.78,2.53,1.7,1.02,2.95,.62,1.67-.53,3.73-.62,5.44-.36,3.94,.59,5.52,6.99,4.99,10.18-.32,1.93-1.63,4.31-3.83,4.09-3.07-.31-2.35-5.1-.63-3.53-1.56,.99-.58,2.95,1.15,2.57,2.05-.44,2.41-4.7,2.3-6.25-.17-2.57-1.41-4.95-3.9-5.91-.73-.28-7.39,.21-6.78,1.14,.37,.57,.35,1.35,.74,1.81,.35,.41,1.06,.36,1.45,.76,.94,.97,.24,3.02-.52,3.9-.61,.7-1.53,1.37-2.44,1.25-.64-.08-1.67-.17-2.05,.5-.45,.8,.22,1.54,.92,1.75,1.49,.44,3.32-.65,4.55-1.38,1.28-.76,2.08-2.01,1.64-3.43-.37-1.2-.74-2.88-.01-4.04,.39-.62,1.62-1.19,2.28-.67-.43,.12-1.21,.51-1.4,.87,.6,.24,1.19,.12,1.64,.73-.6,.33-1.45-.34-1.95-.02-.52,.34-.46,1.58-.33,2.15,.17,.68,.47,1.45,.8,2.05,.55,1,.74,.16,1.42,.56-.26,.55-1.09,.94-1.54,1.38-.58,.56-1.14,1.09-1.82,1.54-.88,.57-1.74,1.34-2.64,1.8-.95,.49-2.16,.37-2.97,1.15-.64,.61-.06,1.01,.21,1.87,.96,3.02,1.94,6.56,1.61,9.81Z"/><path class="n" d="M367.11,44.76c2.27-1.02,6.14-1.34,7.6-3.62,.93-1.45,.82-3.48-.69-4.41-2.69-1.65-7.78-1.05-10.69-.28-3.71,.98-7.21,2.81-10.13,5.29-3.94,3.34-7.93,8.28-9.38,13.27-.31,1.06-1.48,4.61-.43,5.37,1.12,.81,3.27-.87,4.11-1.51,3.48-2.68,6.08-6.29,9.51-9.09,2.88-2.34,6.71-3.49,10.1-5.01Z"/><path class="n" d="M385.69,51.39c-.09-1.86-1.31-17.24-5.48-13.68-2.42,2.06-2.63,5.57-2.74,8.52-.1,2.76,.27,5.94-.4,8.63-1.19,4.8-3.81,10.76-2.75,15.83,.99,4.68,6.94-5.83,7.76-7.08,2.41-3.66,3.81-7.77,3.6-12.22Z"/><path class="c" d="M350.23,66.27c-.4,2.15,4.31,4.04,.67,5.29-2.32,.8-5.92,.16-6.61-2.57-.3-1.17-.47-2.52,.58-3.29,1.3-.95,3.13-1.26,4.5-2.2,1.52-1.03,2.16-1.29,3.57,.14,.3,.31,1.05,1.78,1.45,1.85,1.03,.19,.5-1.01,.14-1.67-.96-1.76-2.16-1.76-.47-3.5,1.48-1.53,2.1-1.94,3.91-.44,.52,.43,1.24,1.81,2.05,1.59,1.19-.31,0-1.63-.4-2.06-1.35-1.44-2.22-1.35-.93-3.17,.47-.67,1.77-2.91,2.62-3.15,1.03-.29,3.26,1.83,4.21,.99,.98-.87-2.02-1.99-2.46-2.39,1.23-.71,2.87-2.9,3.33-4.21,.81,.48,2.24,1.99,2.29,2.9,.1,1.61-1.77,4.45-2.46,5.85-1.16,2.34-2.72,5.15-4.47,7.1-1.54,1.72-3.35,3.44-5.23,4.73-.64,.44-1.76,1.26-2.56,1.16-1.49-.2-2.52-2.51-3.73-2.98Z"/><path class="k" d="M348.48,48.53c1.12-1.19,2.4-2.18,3.87-2.61,0,.97,.36,2.29,1.29,2.56,.08-1.43-.42-3.37-.28-4.59,.29-2.44,4.62-4.18,6.61-5.09,.85-.39,1.61-.85,2.26-.18,.45,.47,.42,2.05,.24,2.63-.86,2.72-2.91,4.71-4.74,6.8-1.45,1.67-3.45,2.53-4.94,4.19-1.61,1.8-4.75,6.37-7.62,5.78-2.85-.59-.45-4.41,.42-5.71,.81-1.22,1.76-2.6,2.88-3.78Z"/><path class="n" d="M388.12,32.4c-1.32,2.07-5.22,1.83-6.66,0-1.1-1.39-1.29-4.66,.72-5.39,1.53-.56,5.64,.4,4.69,2.73,1.1,.44,2.01,1.48,1.25,2.66Z"/><path class="k" d="M386.13,31.89c1.15-1.67-1.88-4.75-3.58-4.08-1.44,.57-2.44,3.31-2.74,4.69-.42,2-.79,3.34,1.55,2.48,1.54-.57,3.81-1.7,4.77-3.1Z"/><path class="k" d="M380.38,64.96c-.8,.99-3.84,9.9-6.35,7.36-.94-.95,.5-4.16,.73-5.29,.4-1.94,1.59-4.04,1.69-6,.05-.97-.58-2.33,.75-2.58,.47-.08,1.46,.6,1.99,.7,.54,.1,1.51,.03,1.85,.08-.79-1-2.35-1.86-3.57-2.1,1.8-1.82,.02-5.28,.81-7.51,0,0,.53-.68,.61-.82,.43-.7,.82-1.46,1.28-2.16,.76-1.19,1.62-2.57,2.79-3.42-.78,1.48-2.19,2.97-2.86,4.45-.47,1.04,.18,2.12-.16,3.15,1.35,.52,3.14-2.1,4.58-2.29-.35,.51-1.42,1.26-1.58,1.82-.26,.9,.67,1.79,.74,2.78,.09,1.21-.77,1.35-.99,2.33-.24,1.07,.55,2.79,.41,4.02-.28,2.52-1.2,3.62-2.72,5.47Z"/><path class="c" d="M374.82,45.7c-.83,1.93-3.07,4.31-4.7,5.56,1.81-2.67,1.91-5.91-1.56-6.9,.61-1.64,2.93-2.02,3.61-3.85,.51-1.36,.08-3.08-.75-4.29,2.39-.07,4.95-1.58,7.2-1.3-.61,2.6-2.14,4.54-3.11,6.9-.51,1.22-.21,2.8-.68,3.89Z"/><g><path class="o" d="M364.53,28.21c1.48-.77,2.94-2.88,1.51-4.36-1.33-1.38-4.32-.09-5.37,1.13-.65,.76-1.68,1.99-1.65,3.07,.06,2.5,4.21,.84,5.51,.16Z"/><path class="q" d="M363.94,27.28c1.67-.57,2.63-2.57,.54-3.02-1.6-.35-4.29,.64-4.05,2.59,.2,1.68,2.51,.78,3.51,.43Z"/></g><g><path class="o" d="M392.66,63.12c1.48-.77,2.93-2.88,1.51-4.37-1.33-1.38-4.32-.09-5.37,1.13-.65,.76-1.68,1.99-1.65,3.07,.06,2.5,4.21,.84,5.51,.16Z"/><path class="q" d="M392.07,62.19c1.67-.58,2.63-2.57,.54-3.03-1.6-.35-4.29,.64-4.05,2.59,.2,1.68,2.51,.78,3.51,.43Z"/></g><g><path class="o" d="M386.75,72.78c1.48-.77,2.93-2.88,1.51-4.36-1.33-1.38-4.32-.09-5.37,1.13-.65,.76-1.68,1.99-1.65,3.07,.06,2.5,4.21,.83,5.51,.16Z"/><path class="q" d="M386.16,71.85c1.67-.58,2.63-2.57,.54-3.03-1.6-.35-4.29,.64-4.05,2.59,.2,1.68,2.51,.78,3.51,.43Z"/></g><g><path class="o" d="M383.32,67.44c.95-.49,1.88-1.84,.97-2.79-.85-.88-2.77-.06-3.43,.72-.41,.49-1.07,1.28-1.06,1.97,.04,1.6,2.69,.53,3.52,.1Z"/><path class="q" d="M382.94,66.84c1.07-.37,1.68-1.65,.35-1.94-1.02-.22-2.74,.41-2.59,1.66,.13,1.08,1.6,.5,2.24,.28Z"/></g><path class="g" d="M400.34,51.11c.05,2.18-1.89,5.83-4.34,5.88-2.71,.06-5.04-3.62-6.02-5.67-.56-1.16-.17-1.8-.25-3.07-.16-2.85-1.29-5.51,3.24-4.57,3.77,.79,7.27,3.33,7.37,7.42Z"/><path class="h" d="M398.61,52.35c-1.27,3.27-4.67,3.25-4.71-.4-.02-2.07,1.16-5.44,3.83-4.48,1.45,.52,1.3,3.78,.88,4.88Z"/><path class="h" d="M346.67,38.99c-1.04,.19-.34,3.78,1.9,1.52,1.81-1.82-.6-3.27-1.9-1.52"/><path class="h" d="M358.93,18.07c-1.04,.19-.34,3.78,1.9,1.53,1.81-1.82-.6-3.27-1.9-1.53"/></g><g><path class="i" d="M3.74,71.06L30.11,19.46c1.36-2.68,2.7-4.02,4.03-4.02s2.66,1.34,4.03,4.02l26.37,51.6h-10.77l-19.63-38.68L14.51,71.06H3.74Z"/><path class="i" d="M70.18,22.24c0-.95,.12-1.81,.35-2.58,.23-.77,.56-1.44,.99-2s.94-.99,1.54-1.29c.59-.3,1.26-.45,1.98-.45h3.59c.34,0,.68,.06,1.02,.18,.34,.12,.66,.29,.97,.5s.59,.48,.86,.78c.26,.3,.49,.64,.68,1l18.37,36.21,18.37-36.21c.19-.37,.42-.7,.68-1,.26-.3,.55-.56,.86-.78s.63-.38,.97-.5c.34-.12,.68-.18,1.02-.18h3.57c.73,0,1.39,.15,1.98,.45,.6,.3,1.11,.73,1.54,1.29s.76,1.22,.99,2c.23,.77,.35,1.63,.35,2.58l.03,48.82h-8.85V33.33l-17.48,34.19c-.21,.42-.46,.87-.75,1.34s-.6,.91-.95,1.3c-.34,.39-.71,.72-1.1,.98-.39,.26-.81,.39-1.24,.39s-.83-.13-1.23-.39c-.39-.26-.76-.59-1.1-.98-.34-.39-.66-.83-.94-1.3s-.53-.92-.74-1.34l-17.49-34.23v37.77h-8.85l.03-48.82Z"/><path class="i" d="M142.86,15.92h37.75c1.42,0,2.72,.22,3.9,.66,1.18,.44,2.25,1.05,3.2,1.82,.95,.77,1.79,1.69,2.5,2.75,.72,1.06,1.31,2.2,1.79,3.44,.47,1.23,.83,2.53,1.07,3.9s.36,2.74,.36,4.14c0,1.98-.24,3.91-.71,5.79-.47,1.88-1.2,3.58-2.16,5.1,.95,1.55,1.66,3.28,2.14,5.18,.48,1.9,.72,3.85,.73,5.83,0,1.38-.12,2.75-.35,4.11-.23,1.36-.58,2.65-1.05,3.87-.47,1.22-1.06,2.36-1.76,3.41-.71,1.05-1.54,1.96-2.49,2.72-.95,.76-2.03,1.36-3.22,1.79s-2.51,.65-3.96,.65h-37.75c-.73,0-1.39-.15-1.98-.45-.6-.3-1.11-.73-1.54-1.29s-.76-1.22-.99-2c-.23-.77-.35-1.63-.35-2.58V22.24c0-.95,.12-1.81,.35-2.58,.23-.77,.56-1.44,.99-2s.94-.99,1.54-1.29c.6-.3,1.26-.45,1.98-.45Zm3.99,10.54v11.17h33.62c.9,0,1.64-.28,2.23-.83,.59-.55,1.03-1.24,1.32-2.07,.29-.83,.44-1.72,.44-2.69s-.15-1.86-.45-2.69c-.3-.83-.75-1.52-1.34-2.07-.59-.55-1.32-.83-2.2-.83h-33.62Zm0,34.07h33.62c.57,0,1.06-.18,1.49-.53,.43-.35,.78-.82,1.07-1.4,.28-.58,.49-1.24,.64-1.98,.14-.74,.21-1.5,.21-2.27s-.07-1.53-.21-2.27c-.14-.74-.35-1.4-.64-1.98-.28-.58-.64-1.04-1.07-1.4-.43-.35-.93-.53-1.49-.53h-33.62v12.37Z"/><path class="i" d="M199.44,64.74V22.24c0-.95,.12-1.81,.35-2.58,.23-.77,.56-1.44,.99-2s.94-.99,1.54-1.29c.6-.3,1.26-.45,1.98-.45h49.36v10.54h-45.37v11.17h39.86v10.54h-39.86v12.37h45.37v10.54h-49.36c-.73,0-1.39-.15-1.98-.45-.6-.3-1.11-.73-1.54-1.29s-.76-1.22-.99-2c-.23-.77-.35-1.63-.35-2.58Z"/><path class="i" d="M264.49,15.92h37.78c1.42,0,2.72,.22,3.9,.67s2.23,1.06,3.18,1.83c.94,.77,1.77,1.69,2.47,2.76s1.28,2.22,1.75,3.46,.81,2.54,1.04,3.9c.23,1.36,.34,2.73,.33,4.11,0,1.41-.12,2.8-.35,4.18-.23,1.38-.58,2.69-1.04,3.93-.46,1.24-1.05,2.39-1.75,3.44-.7,1.05-1.52,1.96-2.46,2.73s-2,1.37-3.17,1.8c-1.18,.43-2.47,.65-3.9,.65h-.17l13.62,21.7h-10.97l-13.62-21.7h-22.65v21.7h-8.84l-.02-48.82c0-.95,.12-1.81,.35-2.58,.23-.77,.56-1.44,.99-2s.94-.99,1.54-1.29c.6-.3,1.26-.45,1.98-.45Zm37.62,22.9c.66,0,1.23-.18,1.73-.53s.91-.82,1.24-1.4c.33-.58,.58-1.24,.75-1.98s.25-1.5,.26-2.27c0-.77-.07-1.53-.23-2.27-.16-.74-.41-1.4-.73-1.98s-.74-1.04-1.24-1.4c-.5-.35-1.09-.53-1.76-.53h-33.62v12.37h33.62Z"/></g><g><path class="f" d="M423.03,64.74V22.24c0-.95,.15-1.8,.46-2.58,.31-.77,.75-1.44,1.32-2,.57-.56,1.25-.99,2.04-1.29,.79-.3,1.67-.45,2.64-.45h65.65v10.54h-60.34v11.17h53.01v10.54h-53.01v12.37h60.34v10.54h-65.65c-.97,0-1.84-.15-2.64-.45-.79-.3-1.47-.73-2.04-1.29-.57-.56-1.01-1.22-1.32-2-.31-.78-.46-1.63-.46-2.58Z"/><path class="f" d="M514.87,60.52h60.34v10.54h-65.65c-.97,0-1.84-.15-2.64-.45-.79-.3-1.47-.73-2.04-1.29-.57-.56-1.01-1.22-1.32-2-.31-.78-.46-1.63-.46-2.58V15.92h11.77V60.52Z"/><path class="f" d="M583.15,64.74V22.24c0-.95,.15-1.8,.46-2.58,.31-.77,.75-1.44,1.32-2,.57-.56,1.25-.99,2.04-1.29,.79-.3,1.67-.45,2.64-.45h65.65v10.54h-60.34v11.17h53.01v10.54h-53.01v12.37h60.34v10.54h-65.65c-.97,0-1.85-.15-2.64-.45-.79-.3-1.47-.73-2.04-1.29-.57-.56-1.01-1.22-1.32-2-.31-.78-.46-1.63-.46-2.58Z"/><path class="f" d="M668.77,21.36c1.8-1.76,3.79-3.11,5.97-4.04,2.18-.93,4.55-1.4,7.11-1.4h53.7v10.54h-53.7c-.95,0-1.85,.17-2.69,.52s-1.57,.83-2.19,1.44c-.62,.61-1.11,1.33-1.47,2.15-.36,.82-.53,1.7-.53,2.63v20.6c0,.87,.19,1.7,.58,2.51s.9,1.52,1.54,2.15c.64,.62,1.37,1.13,2.19,1.51s1.68,.57,2.57,.57h53.7v10.54h-53.7c-1.27,0-2.51-.13-3.71-.39s-2.35-.63-3.46-1.11c-1.11-.48-2.16-1.05-3.15-1.72-.99-.67-1.91-1.4-2.76-2.21-1.76-1.67-3.12-3.59-4.1-5.76s-1.46-4.52-1.46-7.04v-18.67c0-2.52,.48-4.84,1.43-6.97,.95-2.13,2.33-4.07,4.13-5.83Z"/></g></svg>